<?xml version="1.0" standalone="no"?><!DOCTYPE svg PUBLIC "-//W3C//DTD SVG 1.1//EN" "http://www.w3.org/Graphics/SVG/1.1/DTD/svg11.dtd"><svg t="1623378228453" class="icon" viewBox="0 0 1024 1024" version="1.1" xmlns="http://www.w3.org/2000/svg" p-id="4535" xmlns:xlink="http://www.w3.org/1999/xlink" width="200" height="200"><defs><style type="text/css"></style></defs><path d="M640 512h118L513 784 268 512h116V144c0-8.8 7.2-16 16-16h224c8.8 0 16 7.2 16 16v368z" fill="#FFE449" p-id="4536"></path><path d="M513 804c-5.6 0-11-2.4-14.8-6.6l-245-272c-5.2-5.8-6.6-14.4-3.4-21.6 3.2-7.2 10.4-11.8 18.2-11.8h96V144c0-19.8 16.2-36 36-36h224c19.8 0 36 16.2 36 36v348h98c8 0 15 4.6 18.2 11.8 3.2 7.2 1.8 15.6-3.4 21.6l-245 272c-3.8 4.2-9.2 6.6-14.8 6.6z m-200-272l200 222.2 200-222.2H640c-11 0-20-9-20-20V148H404v364c0 11-9 20-20 20h-71zM896 916H128c-11 0-20-9-20-20s9-20 20-20h768c11 0 20 9 20 20s-9 20-20 20z" fill="#2660D0" p-id="4537"></path><path d="M574.4 266c-5.6 0-10-4.4-10-10V192c0-5.6 4.4-10 10-10s10 4.4 10 10v64c0 5.6-4.4 10-10 10z" fill="#FFFFFF" p-id="4538"></path><path d="M576.4 458c-5.6 0-10-4.4-10-10v-156c0-5.6 4.4-10 10-10s10 4.4 10 10v156c0 5.6-4.4 10-10 10z" fill="#FFFFFF" p-id="4539"></path></svg>